<svg width="20" height="20" viewBox="0 0 20 20" fill="none" xmlns="http://www.w3.org/2000/svg">
<path d="M14.4232 13.3151L14.1369 13.6653L14.4568 13.9852L19.422 18.9504C19.4744 19.013 19.5022 19.0928 19.4999 19.1746C19.4975 19.2601 19.4624 19.3415 19.4019 19.4019C19.3415 19.4624 19.2601 19.4975 19.1746 19.4999C19.0928 19.5022 19.013 19.4744 18.9504 19.422L13.9852 14.4568L13.6653 14.1369L13.3151 14.4232C11.7564 15.6977 9.76743 16.3243 7.75965 16.1734C5.75187 16.0225 3.87889 15.1057 2.52812 13.6126C1.17734 12.1195 0.45212 10.1644 0.502455 8.15154C0.552791 6.13873 1.37483 4.22227 2.79855 2.79855C4.22227 1.37483 6.13873 0.552791 8.15154 0.502455C10.1644 0.45212 12.1195 1.17734 13.6126 2.52812C15.1057 3.87889 16.0225 5.75187 16.1734 7.75965C16.3243 9.76743 15.6977 11.7564 14.4232 13.3151ZM8.3606 15.5292L8.36107 15.5292C10.2614 15.5265 12.083 14.7704 13.4267 13.4267C14.7704 12.083 15.5265 10.2614 15.5292 8.36107V8.3606C15.5298 6.94184 15.1097 5.55476 14.3219 4.37483C13.5341 3.19489 12.414 2.27513 11.1034 1.73189C9.79274 1.18864 8.35043 1.04633 6.95889 1.32295C5.56736 1.59958 4.28914 2.28271 3.28592 3.28592C2.28271 4.28914 1.59958 5.56736 1.32295 6.95889C1.04633 8.35043 1.18864 9.79274 1.73189 11.1034C2.27513 12.414 3.19489 13.5341 4.37483 14.3219C5.55476 15.1097 6.94184 15.5298 8.3606 15.5292Z" fill="currentColor" stroke="#CDCDCD"/>
</svg>
